<svg width="132" height="25" viewBox="0 0 132 25" fill="none" xmlns="http://www.w3.org/2000/svg">
<path d="M97.0997 19H96.6865V24.2456H97.0997V19Z" fill="white"/>
<path d="M100.976 21.2225H99.4928V19.813H98.6536V23.4314H99.4928V21.9254H100.976V23.4314H101.821V19.813H100.976V21.2225Z" fill="white"/>
<path d="M103.665 19.813L102.183 23.4314H103.049L103.298 22.7805H104.766L105.01 23.4314H105.898L104.426 19.813H103.666H103.665ZM103.549 22.1246L104.041 20.8401L104.521 22.1246H103.549Z" fill="white"/>
<path d="M108.209 21.7967L106.888 19.813H106.283V23.4314H107.117V21.4292L107.929 22.653H108.482L109.296 21.4292V23.4314H110.13V19.813H109.524L108.209 21.7967Z" fill="white"/>
<path d="M111.676 21.9254H113.349V21.2435H111.676V20.511H113.508V19.813H111.676H111.478H110.835V23.4314H111.478H111.676H113.54V22.7347H111.676V21.9254Z" fill="white"/>
<path d="M114.938 22.7248V19.813H114.099V23.4314H114.747H114.938H116.601V22.7248H114.938Z" fill="white"/>
<path d="M73.8102 20.3179C73.6318 20.1558 73.4227 20.0308 73.1827 19.9442C72.9427 19.8576 72.6822 19.8143 72.3986 19.8143H70.8895V23.4326H72.4089C72.6886 23.4326 72.9479 23.3881 73.1878 23.299C73.4278 23.2099 73.6344 23.0849 73.8128 22.9228C73.9911 22.7607 74.1284 22.5689 74.2272 22.3486C74.3261 22.1283 74.3761 21.887 74.3761 21.6234C74.3761 21.3599 74.3261 21.1087 74.2272 20.8896C74.1284 20.6706 73.9886 20.48 73.8102 20.3179ZM73.3713 22.21C73.2789 22.3758 73.1493 22.5033 72.9799 22.5911C72.8106 22.679 72.6142 22.7248 72.3871 22.7248H71.7288V20.5209H72.3871C72.6104 20.5209 72.8054 20.5642 72.9748 20.6508C73.1429 20.7374 73.2738 20.8649 73.3675 21.0295C73.4612 21.1953 73.5086 21.3908 73.5086 21.616C73.5086 21.8412 73.4624 22.0417 73.37 22.2088L73.3713 22.21Z" fill="white"/>
<path d="M76.8258 19.813L76.0289 21.1309L75.2307 19.813H74.2645L75.6029 21.9217V23.4314H76.4485V21.8895L77.7767 19.813H76.8258Z" fill="white"/>
<path d="M81.5289 19.813H80.4933L79.1113 21.4403V19.813H78.272V23.4314H79.1113V21.647L80.5408 23.4314H81.5879L80.0121 21.5356L81.5289 19.813Z" fill="white"/>
<path d="M84.0903 21.5875C83.9877 21.5022 83.8734 21.4329 83.7477 21.3797C83.6219 21.3265 83.4962 21.2794 83.3704 21.2386C83.2447 21.1978 83.1292 21.1569 83.0252 21.1161C82.9213 21.0752 82.8366 21.027 82.7724 20.9701C82.7083 20.9131 82.6775 20.8414 82.6775 20.7523C82.6775 20.6533 82.7198 20.5765 82.8045 20.5246C82.8892 20.4714 83.0047 20.4454 83.1497 20.4454C83.2947 20.4454 83.4192 20.4726 83.5347 20.5271C83.6502 20.5815 83.7644 20.6656 83.8773 20.7783L84.4252 20.2499C84.2841 20.1001 84.1044 19.9801 83.8888 19.891C83.672 19.8019 83.432 19.7573 83.1664 19.7573C82.9007 19.7573 82.6826 19.7994 82.4811 19.8823C82.2797 19.9665 82.1231 20.0877 82.0102 20.2486C81.8985 20.4095 81.8434 20.6025 81.8434 20.8277C81.8434 21.0084 81.8754 21.1606 81.9396 21.2844C82.0038 21.4069 82.0872 21.5084 82.1924 21.5863C82.2963 21.6643 82.4118 21.7311 82.5376 21.7855C82.6633 21.84 82.7878 21.887 82.9123 21.9266C83.0368 21.9662 83.151 22.007 83.2575 22.0516C83.364 22.0961 83.4474 22.1494 83.5103 22.21C83.5719 22.2719 83.6027 22.3498 83.6027 22.4451C83.6027 22.554 83.5539 22.6406 83.4564 22.7037C83.3589 22.7668 83.2241 22.799 83.0496 22.799C82.8546 22.799 82.6839 22.7619 82.5363 22.6889C82.3887 22.6159 82.2553 22.5119 82.1347 22.3783L81.5931 22.9017C81.7741 23.0997 81.9743 23.247 82.1963 23.3423C82.417 23.4388 82.6839 23.4858 82.9957 23.4858C83.4487 23.4858 83.8041 23.3881 84.0582 23.1913C84.3136 22.9945 84.4406 22.7248 84.4406 22.3783C84.4406 22.1877 84.4073 22.0281 84.3418 21.9019C84.2764 21.7756 84.1917 21.6692 84.089 21.5851L84.0903 21.5875Z" fill="white"/>
<path d="M84.6382 20.5209H85.8123V23.4314H86.658V20.5209H87.827V19.813H84.6382V20.5209Z" fill="white"/>
<path d="M90.5103 21.8128C90.7015 21.7237 90.8503 21.5999 90.9569 21.4416C91.0634 21.2832 91.1159 21.0938 91.1159 20.876C91.1159 20.6706 91.0634 20.4887 90.9593 20.3278C90.8554 20.167 90.7092 20.042 90.5206 19.9516C90.3332 19.8613 90.1137 19.8155 89.8622 19.8155H88.3261V23.4339H89.1655V21.9477H89.2514L90.3666 23.4339H91.3598L90.1625 21.918C90.287 21.8957 90.405 21.8635 90.509 21.8153L90.5103 21.8128ZM89.1667 20.4442H89.7673C89.9303 20.4442 90.0572 20.4875 90.1471 20.5729C90.2369 20.6582 90.2831 20.7659 90.2831 20.8958C90.2831 21.0258 90.2369 21.1408 90.1446 21.2213C90.0521 21.3017 89.9251 21.3413 89.7622 21.3413H89.1667V20.4442Z" fill="white"/>
<path d="M94.4357 23.4314H95.3237L93.8518 19.813H93.0921L91.6099 23.4314H92.4762L92.7251 22.7805H94.1932L94.4369 23.4314H94.4357ZM92.9753 22.1246L93.4668 20.8401L93.9468 22.1246H92.9753Z" fill="white"/>
<path d="M68.6954 23.5262C68.5655 23.5262 68.4476 23.4942 68.3417 23.4303C68.2358 23.3643 68.1519 23.2754 68.0899 23.1635C68.03 23.0516 68 22.9257 68 22.7858C68 22.6459 68.03 22.52 68.0899 22.4081C68.1519 22.2962 68.2348 22.2073 68.3387 22.1414C68.4446 22.0754 68.5635 22.0424 68.6954 22.0424C68.8033 22.0424 68.8992 22.0654 68.9832 22.1114C69.0691 22.1554 69.138 22.2173 69.19 22.2972C69.242 22.3752 69.2709 22.4661 69.2769 22.57V22.9986C69.2709 23.1006 69.242 23.1915 69.19 23.2714C69.14 23.3513 69.0721 23.4143 68.9862 23.4603C68.9022 23.5042 68.8053 23.5262 68.6954 23.5262ZM68.7404 23.2714C68.8743 23.2714 68.9822 23.2265 69.0641 23.1365C69.146 23.0446 69.187 22.9277 69.187 22.7858C69.187 22.6879 69.168 22.603 69.1301 22.531C69.0941 22.4571 69.0421 22.4001 68.9742 22.3602C68.9062 22.3182 68.8273 22.2972 68.7374 22.2972C68.6475 22.2972 68.5675 22.3182 68.4976 22.3602C68.4296 22.4021 68.3757 22.4601 68.3357 22.534C68.2977 22.606 68.2788 22.6889 68.2788 22.7828C68.2788 22.8787 68.2977 22.9637 68.3357 23.0376C68.3757 23.1095 68.4306 23.1665 68.5006 23.2085C68.5705 23.2504 68.6505 23.2714 68.7404 23.2714ZM69.169 23.4962V23.1125L69.22 22.7648L69.169 22.4201V22.0724H69.4418V23.4962H69.169Z" fill="white"/>
<path d="M130.173 23.5082L129.555 22.0724H129.855L130.314 23.1965H130.218L130.7 22.0724H131L130.335 23.5082H130.173ZM129.765 24.0927L130.185 23.2324L130.335 23.5082L130.065 24.0927H129.765Z" fill="white"/>
<path d="M129.07 23.4962V22.6659C129.07 22.558 129.036 22.4691 128.968 22.3991C128.9 22.3292 128.812 22.2942 128.704 22.2942C128.632 22.2942 128.568 22.3102 128.512 22.3422C128.457 22.3742 128.413 22.4181 128.381 22.4741C128.349 22.53 128.333 22.594 128.333 22.6659L128.222 22.603C128.222 22.4951 128.246 22.3991 128.294 22.3152C128.342 22.2313 128.409 22.1653 128.495 22.1174C128.58 22.0674 128.677 22.0424 128.785 22.0424C128.893 22.0424 128.988 22.0694 129.07 22.1234C129.154 22.1773 129.22 22.2483 129.268 22.3362C129.316 22.4221 129.34 22.514 129.34 22.612V23.4962H129.07ZM128.063 23.4962V22.0724H128.333V23.4962H128.063Z" fill="white"/>
<path d="M126.924 23.5262C126.794 23.5262 126.676 23.4942 126.57 23.4303C126.464 23.3643 126.38 23.2754 126.318 23.1635C126.258 23.0516 126.228 22.9257 126.228 22.7858C126.228 22.6459 126.258 22.52 126.318 22.4081C126.38 22.2962 126.463 22.2073 126.567 22.1414C126.673 22.0754 126.792 22.0424 126.924 22.0424C127.032 22.0424 127.128 22.0654 127.212 22.1114C127.298 22.1554 127.366 22.2173 127.418 22.2972C127.47 22.3752 127.499 22.4661 127.505 22.57V22.9986C127.499 23.1006 127.47 23.1915 127.418 23.2714C127.368 23.3513 127.301 23.4143 127.215 23.4603C127.131 23.5042 127.034 23.5262 126.924 23.5262ZM126.969 23.2714C127.103 23.2714 127.211 23.2265 127.293 23.1365C127.374 23.0446 127.415 22.9277 127.415 22.7858C127.415 22.6879 127.396 22.603 127.358 22.531C127.323 22.4571 127.271 22.4001 127.203 22.3602C127.135 22.3182 127.056 22.2972 126.966 22.2972C126.876 22.2972 126.796 22.3182 126.726 22.3602C126.658 22.4021 126.604 22.4601 126.564 22.534C126.526 22.606 126.507 22.6889 126.507 22.7828C126.507 22.8787 126.526 22.9637 126.564 23.0376C126.604 23.1095 126.659 23.1665 126.729 23.2085C126.799 23.2504 126.879 23.2714 126.969 23.2714ZM127.397 23.4962V23.1125L127.448 22.7648L127.397 22.4201V22.0724H127.67V23.4962H127.397Z" fill="white"/>
<path d="M125.323 23.5262C125.215 23.5262 125.117 23.5042 125.029 23.4603C124.943 23.4143 124.874 23.3513 124.822 23.2714C124.77 23.1915 124.741 23.1006 124.735 22.9986V22.57C124.741 22.4661 124.77 22.3752 124.822 22.2972C124.876 22.2173 124.946 22.1554 125.032 22.1114C125.12 22.0654 125.217 22.0424 125.323 22.0424C125.453 22.0424 125.57 22.0754 125.674 22.1414C125.78 22.2073 125.863 22.2962 125.922 22.4081C125.982 22.52 126.012 22.6459 126.012 22.7858C126.012 22.9257 125.982 23.0516 125.922 23.1635C125.863 23.2754 125.78 23.3643 125.674 23.4303C125.57 23.4942 125.453 23.5262 125.323 23.5262ZM124.574 24.0927V22.0724H124.843V22.4471L124.792 22.7918L124.843 23.1395V24.0927H124.574ZM125.278 23.2714C125.368 23.2714 125.447 23.2504 125.515 23.2085C125.583 23.1665 125.637 23.1095 125.677 23.0376C125.717 22.9637 125.737 22.8787 125.737 22.7828C125.737 22.6889 125.717 22.605 125.677 22.531C125.637 22.4571 125.583 22.4001 125.515 22.3602C125.447 22.3182 125.369 22.2972 125.281 22.2972C125.191 22.2972 125.112 22.3182 125.044 22.3602C124.976 22.4001 124.923 22.4571 124.885 22.531C124.847 22.605 124.828 22.6899 124.828 22.7858C124.828 22.8797 124.846 22.9637 124.882 23.0376C124.92 23.1095 124.973 23.1665 125.041 23.2085C125.111 23.2504 125.19 23.2714 125.278 23.2714Z" fill="white"/>
<path d="M122.009 23.4962V22.0724H122.279V23.4962H122.009ZM122.972 23.4962V22.6359C122.972 22.53 122.939 22.4471 122.873 22.3872C122.809 22.3252 122.728 22.2942 122.63 22.2942C122.564 22.2942 122.505 22.3082 122.453 22.3362C122.401 22.3642 122.359 22.4031 122.327 22.4531C122.295 22.5031 122.279 22.563 122.279 22.633L122.168 22.579C122.168 22.4711 122.191 22.3772 122.237 22.2972C122.285 22.2173 122.35 22.1554 122.432 22.1114C122.514 22.0654 122.606 22.0424 122.708 22.0424C122.808 22.0424 122.898 22.0644 122.978 22.1084C123.059 22.1524 123.123 22.2143 123.169 22.2942C123.217 22.3742 123.241 22.4691 123.241 22.579V23.4962H122.972ZM123.934 23.4962V22.6359C123.934 22.53 123.901 22.4471 123.835 22.3872C123.771 22.3252 123.691 22.2942 123.595 22.2942C123.529 22.2942 123.469 22.3082 123.415 22.3362C123.363 22.3642 123.321 22.4031 123.289 22.4531C123.257 22.5031 123.241 22.563 123.241 22.633L123.088 22.579C123.094 22.4691 123.123 22.3752 123.175 22.2972C123.229 22.2173 123.298 22.1554 123.382 22.1114C123.466 22.0654 123.558 22.0424 123.658 22.0424C123.762 22.0424 123.855 22.0644 123.937 22.1084C124.019 22.1524 124.084 22.2143 124.132 22.2942C124.182 22.3742 124.207 22.4701 124.207 22.582V23.4962H123.934Z" fill="white"/>
<path d="M120.962 23.5262C120.822 23.5262 120.696 23.4932 120.584 23.4273C120.472 23.3613 120.383 23.2724 120.318 23.1605C120.252 23.0466 120.219 22.9197 120.219 22.7798C120.219 22.6419 120.252 22.518 120.318 22.4081C120.383 22.2962 120.472 22.2073 120.584 22.1414C120.696 22.0754 120.822 22.0424 120.962 22.0424C121.1 22.0424 121.225 22.0754 121.337 22.1414C121.451 22.2053 121.541 22.2932 121.606 22.4051C121.672 22.517 121.705 22.6419 121.705 22.7798C121.705 22.9197 121.672 23.0466 121.606 23.1605C121.541 23.2724 121.451 23.3613 121.337 23.4273C121.225 23.4932 121.1 23.5262 120.962 23.5262ZM120.962 23.2654C121.052 23.2654 121.132 23.2444 121.202 23.2025C121.272 23.1605 121.327 23.1036 121.367 23.0316C121.407 22.9577 121.427 22.8737 121.427 22.7798C121.427 22.6879 121.406 22.606 121.364 22.534C121.324 22.4621 121.269 22.4061 121.199 22.3662C121.131 22.3242 121.052 22.3032 120.962 22.3032C120.872 22.3032 120.792 22.3242 120.722 22.3662C120.652 22.4061 120.597 22.4621 120.557 22.534C120.517 22.606 120.497 22.6879 120.497 22.7798C120.497 22.8737 120.517 22.9577 120.557 23.0316C120.597 23.1036 120.652 23.1605 120.722 23.2025C120.792 23.2444 120.872 23.2654 120.962 23.2654Z" fill="white"/>
<path d="M119.29 23.5262C119.14 23.5262 119.001 23.4992 118.873 23.4453C118.745 23.3893 118.633 23.3124 118.538 23.2145C118.444 23.1165 118.371 23.0026 118.319 22.8727C118.267 22.7429 118.241 22.604 118.241 22.4561C118.241 22.3062 118.267 22.1663 118.319 22.0364C118.371 21.9066 118.444 21.7937 118.538 21.6977C118.633 21.5998 118.744 21.5239 118.87 21.4699C118.998 21.414 119.137 21.386 119.287 21.386C119.451 21.386 119.595 21.414 119.719 21.4699C119.842 21.5259 119.952 21.6018 120.048 21.6977L119.853 21.8926C119.787 21.8186 119.707 21.7607 119.611 21.7187C119.517 21.6767 119.409 21.6558 119.287 21.6558C119.177 21.6558 119.076 21.6758 118.984 21.7157C118.892 21.7537 118.812 21.8086 118.744 21.8806C118.676 21.9525 118.623 22.0374 118.585 22.1354C118.549 22.2333 118.532 22.3402 118.532 22.4561C118.532 22.572 118.549 22.6789 118.585 22.7768C118.623 22.8747 118.676 22.9597 118.744 23.0316C118.812 23.1036 118.892 23.1595 118.984 23.1995C119.076 23.2374 119.177 23.2564 119.287 23.2564C119.417 23.2564 119.53 23.2354 119.626 23.1935C119.722 23.1495 119.802 23.0906 119.868 23.0166L120.063 23.2085C119.967 23.3084 119.854 23.3863 119.725 23.4423C119.597 23.4982 119.452 23.5262 119.29 23.5262Z" fill="white"/>
<path d="M122.074 14.9654V1.02298H125.594V14.9654H122.074ZM124.866 14.9654V11.937H131.592V14.9654H124.866Z" fill="white"/>
<path d="M106.61 14.9654L112.018 1.02298H115.42L120.769 14.9654H117.091L113.06 3.2451H114.338L110.208 14.9654H106.61ZM109.894 12.5269V9.73451H117.583V12.5269H109.894Z" fill="white"/>
<path d="M98.0959 9.32154V6.80444H100.751C101.327 6.80444 101.767 6.66679 102.068 6.39148C102.383 6.10306 102.54 5.71632 102.54 5.23125C102.54 4.7593 102.383 4.37911 102.068 4.09069C101.767 3.78917 101.327 3.6384 100.751 3.6384H98.0959V1.02298H101.242C102.186 1.02298 103.012 1.19996 103.72 1.55393C104.441 1.90789 105.005 2.39296 105.411 3.00913C105.818 3.62529 106.021 4.34634 106.021 5.17226C106.021 5.99818 105.811 6.72578 105.392 7.35506C104.985 7.97122 104.415 8.45629 103.681 8.81026C102.947 9.15112 102.088 9.32154 101.105 9.32154H98.0959ZM95.3035 14.9654V1.02298H98.8235V14.9654H95.3035ZM102.855 14.9654L98.8038 8.98724L101.97 8.22031L106.925 14.9654H102.855Z" fill="white"/>
<path d="M85.915 14.9654V1.1213H89.435V14.9654H85.915ZM81.6478 4.05136V1.02298H93.7023V4.05136H81.6478Z" fill="white"/>
<path d="M67.8226 14.9654V1.02298H70.2807L71.3426 3.87438V14.9654H67.8226ZM77.4387 14.9654L69.2975 4.62164L70.2807 1.02298L78.4416 11.3667L77.4387 14.9654ZM77.4387 14.9654L76.5341 12.0353V1.02298H80.0541V14.9654H77.4387Z" fill="white"/>
<path d="M55.4937 14.9654V1.02298H59.0137V14.9654H55.4937ZM58.2861 14.9654V11.996H65.8374V14.9654H58.2861ZM58.2861 9.30188V6.41115H65.1294V9.30188H58.2861ZM58.2861 3.99237V1.02298H65.7194V3.99237H58.2861Z" fill="white"/>
<path d="M48.6428 15.1817C47.5809 15.1817 46.5977 15.0047 45.6931 14.6507C44.7885 14.2836 43.9953 13.7789 43.3136 13.1365C42.645 12.481 42.1206 11.7141 41.7404 10.8357C41.3734 9.95737 41.1898 9.00691 41.1898 7.98433C41.1898 6.94865 41.3734 5.99818 41.7404 5.13293C42.1206 4.25457 42.645 3.49419 43.3136 2.85181C43.9953 2.20942 44.7819 1.70469 45.6734 1.33761C46.578 0.970538 47.5547 0.786999 48.6035 0.786999C49.7047 0.786999 50.6945 0.963982 51.5729 1.31795C52.4512 1.65881 53.2247 2.13732 53.8933 2.75348L51.5335 5.11327C51.2058 4.74619 50.7994 4.45777 50.3143 4.24801C49.8292 4.03825 49.259 3.93337 48.6035 3.93337C48.0397 3.93337 47.5219 4.02514 47.0499 4.20868C46.5911 4.39222 46.1912 4.66753 45.8504 5.03461C45.5095 5.38857 45.2408 5.81465 45.0441 6.31282C44.8606 6.811 44.7688 7.36817 44.7688 7.98433C44.7688 8.6005 44.8606 9.15767 45.0441 9.65585C45.2408 10.154 45.5095 10.5866 45.8504 10.9537C46.1912 11.3077 46.5911 11.583 47.0499 11.7797C47.5219 11.9632 48.0397 12.055 48.6035 12.055C49.259 12.055 49.8358 11.9566 50.334 11.76C50.8321 11.5502 51.2582 11.2553 51.6122 10.8751L53.972 13.2348C53.2903 13.851 52.5168 14.3295 51.6515 14.6704C50.7994 15.0112 49.7965 15.1817 48.6428 15.1817Z" fill="white"/>
<path d="M32.4926 15.221C31.4176 15.221 30.4278 15.0375 29.5232 14.6704C28.6187 14.3033 27.8255 13.792 27.1438 13.1365C26.4752 12.481 25.9508 11.7141 25.5706 10.8357C25.1904 9.94426 25.0003 8.98724 25.0003 7.96467C25.0003 6.9421 25.1839 5.99818 25.5509 5.13293C25.9311 4.25457 26.4555 3.48764 27.1241 2.83214C27.7927 2.17665 28.5793 1.67192 29.4839 1.31795C30.3885 0.950871 31.3783 0.767332 32.4533 0.767332C33.5283 0.767332 34.5181 0.950871 35.4227 1.31795C36.3273 1.67192 37.1139 2.17665 37.7825 2.83214C38.4511 3.48764 38.9689 4.25457 39.336 5.13293C39.7162 6.01129 39.9063 6.96176 39.9063 7.98433C39.9063 9.00691 39.7162 9.95737 39.336 10.8357C38.9689 11.7141 38.4511 12.4876 37.7825 13.1562C37.1139 13.8117 36.3273 14.323 35.4227 14.69C34.5312 15.044 33.5545 15.221 32.4926 15.221ZM32.4533 12.0746C33.2399 12.0746 33.9216 11.9042 34.4984 11.5633C35.0753 11.2225 35.521 10.744 35.8357 10.1278C36.1503 9.51164 36.3076 8.79059 36.3076 7.96467C36.3076 7.36161 36.2158 6.811 36.0323 6.31282C35.8619 5.81464 35.6062 5.38857 35.2654 5.03461C34.9245 4.66753 34.5181 4.38567 34.0462 4.18902C33.5742 3.99237 33.0432 3.89404 32.4533 3.89404C31.6667 3.89404 30.985 4.06447 30.4082 4.40533C29.8313 4.73308 29.3856 5.20503 29.0709 5.8212C28.7563 6.43737 28.599 7.15185 28.599 7.96467C28.599 8.59394 28.6842 9.16422 28.8546 9.67551C29.0382 10.1737 29.3004 10.6063 29.6412 10.9734C29.9821 11.3274 30.3885 11.6027 30.8604 11.7993C31.3324 11.9829 31.8634 12.0746 32.4533 12.0746Z" fill="white"/>
<path d="M19.4144 15.1817C18.3525 15.1817 17.3692 15.0047 16.4647 14.6507C15.5601 14.2836 14.7669 13.7789 14.0852 13.1365C13.4166 12.481 12.8922 11.7141 12.512 10.8357C12.1449 9.95737 11.9614 9.00691 11.9614 7.98433C11.9614 6.94865 12.1449 5.99818 12.512 5.13293C12.8922 4.25457 13.4166 3.49419 14.0852 2.85181C14.7669 2.20942 15.5535 1.70469 16.445 1.33761C17.3496 0.970538 18.3263 0.786999 19.375 0.786999C20.4763 0.786999 21.4661 0.963982 22.3444 1.31795C23.2228 1.65881 23.9963 2.13732 24.6649 2.75348L22.3051 5.11327C21.9774 4.74619 21.571 4.45777 21.0859 4.24801C20.6008 4.03825 20.0305 3.93337 19.375 3.93337C18.8113 3.93337 18.2935 4.02514 17.8215 4.20868C17.3627 4.39222 16.9628 4.66753 16.622 5.03461C16.2811 5.38857 16.0124 5.81465 15.8157 6.31282C15.6322 6.811 15.5404 7.36817 15.5404 7.98433C15.5404 8.6005 15.6322 9.15767 15.8157 9.65585C16.0124 10.154 16.2811 10.5866 16.622 10.9537C16.9628 11.3077 17.3627 11.583 17.8215 11.7797C18.2935 11.9632 18.8113 12.055 19.375 12.055C20.0305 12.055 20.6074 11.9566 21.1056 11.76C21.6037 11.5502 22.0298 11.2553 22.3838 10.8751L24.7436 13.2348C24.0618 13.851 23.2884 14.3295 22.4231 14.6704C21.571 15.0112 20.5681 15.1817 19.4144 15.1817Z" fill="white"/>
<path d="M2.86345 9.97048V7.35506H5.61653C5.95739 7.35506 6.26547 7.28951 6.54078 7.15841C6.8292 7.0142 7.05862 6.80444 7.22905 6.52913C7.39948 6.25383 7.48469 5.91297 7.48469 5.50656C7.48469 5.10015 7.39948 4.7593 7.22905 4.48399C7.05862 4.19557 6.8292 3.98581 6.54078 3.85472C6.26547 3.71051 5.95739 3.6384 5.61653 3.6384H2.86345V1.02298H6.22614C7.11762 1.02298 7.92388 1.20651 8.64492 1.57359C9.36596 1.92756 9.93625 2.43885 10.3558 3.10745C10.7753 3.76295 10.985 4.56265 10.985 5.50656C10.985 6.42425 10.7753 7.22396 10.3558 7.90567C9.93625 8.57428 9.36596 9.08557 8.64492 9.43953C7.92388 9.7935 7.11762 9.97048 6.22614 9.97048H2.86345ZM0.0710449 14.9654V1.02298H3.59105V14.9654H0.0710449Z" fill="white"/>
</svg>
