<svg width="183" height="36" viewBox="0 0 183 36" fill="none" xmlns="http://www.w3.org/2000/svg">
<path d="M172.454 22.784V7.3996H176.338V22.784H172.454ZM175.535 22.784V19.4424H182.956V22.784H175.535Z" fill="#313131"/>
<path d="M155.392 22.784L161.359 7.3996H165.113L171.015 22.784H166.957L162.509 9.85155H163.919L159.362 22.784H155.392ZM159.015 20.0933V17.0121H167.5V20.0933H159.015Z" fill="#313131"/>
<path d="M145.997 16.5565V13.779H148.927C149.563 13.779 150.048 13.6271 150.38 13.3233C150.728 13.0051 150.901 12.5784 150.901 12.0431C150.901 11.5224 150.728 11.1028 150.38 10.7846C150.048 10.4519 149.563 10.2855 148.927 10.2855H145.997V7.3996H149.469C150.511 7.3996 151.422 7.59489 152.203 7.98546C152.999 8.37604 153.621 8.91127 154.069 9.59117C154.518 10.2711 154.742 11.0667 154.742 11.978C154.742 12.8894 154.51 13.6922 154.048 14.3866C153.599 15.0665 152.97 15.6017 152.16 15.9923C151.35 16.3684 150.402 16.5565 149.317 16.5565H145.997ZM142.916 22.784V7.3996H146.8V22.784H142.916ZM151.248 22.784L146.778 16.1876L150.272 15.3413L155.74 22.784H151.248Z" fill="#313131"/>
<path d="M132.556 22.784V7.50809H136.44V22.784H132.556ZM127.848 10.7412V7.3996H141.149V10.7412H127.848Z" fill="#313131"/>
<path d="M112.593 22.784V7.3996H115.305L116.477 10.5459V22.784H112.593ZM123.204 22.784L114.22 11.3705L115.305 7.3996L124.31 18.8131L123.204 22.784ZM123.204 22.784L122.205 19.5509V7.3996H126.089V22.784H123.204Z" fill="#313131"/>
<path d="M98.9883 22.784V7.3996H102.872V22.784H98.9883ZM102.07 22.784V19.5075H110.402V22.784H102.07ZM102.07 16.5348V13.345H109.621V16.5348H102.07ZM102.07 10.6761V7.3996H110.272V10.6761H102.07Z" fill="#313131"/>
<path d="M91.4289 23.0233C90.2572 23.0233 89.1723 22.8281 88.1741 22.4375C87.176 22.0324 86.3008 21.4755 85.5486 20.7667C84.8108 20.0434 84.2322 19.1971 83.8127 18.2279C83.4076 17.2587 83.2051 16.2099 83.2051 15.0816C83.2051 13.9388 83.4076 12.89 83.8127 11.9353C84.2322 10.9661 84.8108 10.1271 85.5486 9.41826C86.3008 8.70943 87.1687 8.1525 88.1524 7.74746C89.1506 7.34241 90.2283 7.13989 91.3855 7.13989C92.6007 7.13989 93.6929 7.33518 94.6621 7.72576C95.6313 8.10187 96.4848 8.62987 97.2225 9.30976L94.6187 11.9136C94.257 11.5086 93.8086 11.1903 93.2733 10.9589C92.7381 10.7274 92.1088 10.6117 91.3855 10.6117C90.7635 10.6117 90.1921 10.7129 89.6713 10.9155C89.165 11.118 88.7238 11.4218 88.3477 11.8268C87.9716 12.2174 87.675 12.6875 87.4581 13.2372C87.2555 13.7869 87.1543 14.4017 87.1543 15.0816C87.1543 15.7615 87.2555 16.3763 87.4581 16.926C87.675 17.4757 87.9716 17.9531 88.3477 18.3581C88.7238 18.7487 89.165 19.0525 89.6713 19.2695C90.1921 19.472 90.7635 19.5732 91.3855 19.5732C92.1088 19.5732 92.7453 19.4648 93.295 19.2478C93.8447 19.0163 94.3149 18.6908 94.7055 18.2713L97.3093 20.8752C96.5571 21.5551 95.7036 22.0831 94.7489 22.4592C93.8086 22.8353 92.7019 23.0233 91.4289 23.0233Z" fill="#313131"/>
<path d="M35.6291 17.2725V14.3866H38.6669C39.043 14.3866 39.383 14.3143 39.6868 14.1696C40.005 14.0105 40.2582 13.779 40.4462 13.4752C40.6343 13.1715 40.7283 12.7953 40.7283 12.3469C40.7283 11.8985 40.6343 11.5224 40.4462 11.2186C40.2582 10.9003 40.005 10.6689 39.6868 10.5242C39.383 10.3651 39.043 10.2855 38.6669 10.2855H35.6291V7.3996H39.3396C40.3233 7.3996 41.2129 7.60212 42.0085 8.00716C42.8042 8.39774 43.4334 8.9619 43.8963 9.69966C44.3592 10.4229 44.5907 11.3054 44.5907 12.3469C44.5907 13.3595 44.3592 14.2419 43.8963 14.9941C43.4334 15.7319 42.8042 16.2961 42.0085 16.6866C41.2129 17.0772 40.3233 17.2725 39.3396 17.2725H35.6291ZM32.5479 22.784V7.3996H36.4319V22.784H32.5479Z" fill="#313131"/>
<path d="M13.7529 22.784V7.3996H16.5521L22.4542 16.3178H21.1305L27.0109 7.3996H29.8101V22.784H25.9694V13.8224L26.5769 13.996L23.04 19.3122H20.523L17.0078 13.996L17.6153 13.8224V22.784H13.7529Z" fill="#313131"/>
<path d="M3.08123 17.2725V14.3866H6.11907C6.49518 14.3866 6.83513 14.3143 7.13892 14.1696C7.45716 14.0105 7.71032 13.779 7.89837 13.4752C8.08643 13.1715 8.18046 12.7953 8.18046 12.3469C8.18046 11.8985 8.08643 11.5224 7.89837 11.2186C7.71032 10.9003 7.45716 10.6689 7.13892 10.5242C6.83513 10.3651 6.49518 10.2855 6.11907 10.2855H3.08123V7.3996H6.79173C7.77541 7.3996 8.66507 7.60212 9.46069 8.00716C10.2563 8.39774 10.8856 8.9619 11.3485 9.69966C11.8114 10.4229 12.0429 11.3054 12.0429 12.3469C12.0429 13.3595 11.8114 14.2419 11.3485 14.9941C10.8856 15.7319 10.2563 16.2961 9.46069 16.6866C8.66507 17.0772 7.77541 17.2725 6.79173 17.2725H3.08123ZM0 22.784V7.3996H3.88409V22.784H0Z" fill="#313131"/>
<path d="M179.85 34.9169V30.3016H181.015V34.9169H179.85ZM180.774 34.9169V33.9145H183V34.9169H180.774Z" fill="#313131"/>
<path d="M175.769 34.9169V30.3016H176.934V34.9169H175.769ZM176.693 34.9169V33.934H179.193V34.9169H176.693ZM176.693 33.0422V32.0853H178.958V33.0422H176.693ZM176.693 31.2846V30.3016H179.154V31.2846H176.693Z" fill="#313131"/>
<path d="M170.129 34.9169V30.3016H170.969L172.739 32.9771H172.342L174.106 30.3016H174.946V34.9169H173.794V32.2285L173.976 32.2806L172.915 33.8754H172.16L171.105 32.2806L171.288 32.2285V34.9169H170.129Z" fill="#313131"/>
<path d="M165.01 34.9169L166.8 30.3016H167.926L169.697 34.9169H168.479L167.145 31.0372H167.568L166.201 34.9169H165.01ZM166.097 34.1098V33.1854H168.642V34.1098H166.097Z" fill="#313131"/>
<path d="M160.537 34.9169V30.3016H161.702V34.9169H160.537ZM163.362 34.9169V30.3016H164.528V34.9169H163.362ZM161.201 33.0422V32.0657H163.785V33.0422H161.201Z" fill="#313131"/>
<path d="M157.417 35.7635V29.8463H158.432V35.7635H157.417Z" fill="#313131"/>
<path d="M151.146 34.9169L152.936 30.3016H154.062L155.832 34.9169H154.615L153.281 31.0372H153.704L152.337 34.9169H151.146ZM152.233 34.1098V33.1854H154.778V34.1098H152.233Z" fill="#313131"/>
<path d="M148.328 33.0487V32.2155H149.206C149.397 32.2155 149.543 32.1699 149.643 32.0788C149.747 31.9833 149.799 31.8553 149.799 31.6947C149.799 31.5385 149.747 31.4126 149.643 31.3171C149.543 31.2173 149.397 31.1674 149.206 31.1674H148.328V30.3016H149.369C149.682 30.3016 149.955 30.3602 150.189 30.4774C150.428 30.5946 150.615 30.7551 150.749 30.9591C150.884 31.1631 150.951 31.4018 150.951 31.6752C150.951 31.9486 150.882 32.1894 150.743 32.3977C150.608 32.6017 150.419 32.7623 150.176 32.8794C149.933 32.9923 149.649 33.0487 149.324 33.0487H148.328ZM147.403 34.9169V30.3016H148.569V34.9169H147.403ZM149.903 34.9169L148.562 32.938L149.61 32.6842L151.251 34.9169H149.903Z" fill="#313131"/>
<path d="M144.294 34.9169V30.3342H145.46V34.9169H144.294ZM142.882 31.3041V30.3016H146.872V31.3041H142.882Z" fill="#313131"/>
<path d="M140.902 34.9882C140.516 34.9882 140.179 34.9297 139.893 34.8125C139.611 34.6953 139.353 34.5109 139.118 34.2592L139.854 33.5171C140.014 33.6863 140.186 33.8165 140.368 33.9076C140.55 33.9944 140.756 34.0378 140.986 34.0378C141.182 34.0378 141.331 34.0053 141.436 33.9402C141.544 33.8708 141.598 33.7775 141.598 33.6603C141.598 33.5518 141.559 33.4628 141.481 33.3934C141.403 33.3196 141.299 33.2567 141.169 33.2046C141.043 33.1482 140.902 33.0961 140.746 33.0484C140.594 32.9963 140.44 32.9355 140.283 32.8661C140.131 32.7923 139.99 32.7034 139.86 32.5992C139.734 32.4951 139.632 32.3649 139.554 32.2086C139.476 32.0524 139.437 31.8593 139.437 31.6293C139.437 31.3342 139.507 31.0825 139.645 30.8742C139.789 30.6659 139.986 30.5053 140.238 30.3925C140.49 30.2796 140.782 30.2232 141.117 30.2232C141.451 30.2232 141.759 30.2796 142.041 30.3925C142.323 30.5053 142.555 30.6615 142.738 30.8611L141.995 31.5967C141.857 31.4579 141.716 31.3537 141.572 31.2843C141.429 31.2148 141.273 31.1801 141.104 31.1801C140.943 31.1801 140.817 31.2083 140.726 31.2647C140.635 31.3212 140.589 31.4014 140.589 31.5056C140.589 31.6098 140.628 31.6944 140.707 31.7595C140.785 31.8246 140.887 31.8832 141.012 31.9352C141.143 31.983 141.284 32.0329 141.436 32.085C141.592 32.137 141.746 32.1978 141.898 32.2672C142.05 32.3367 142.189 32.4256 142.314 32.5341C142.445 32.6426 142.549 32.7793 142.627 32.9442C142.705 33.1091 142.744 33.3088 142.744 33.5431C142.744 34.0031 142.581 34.359 142.256 34.6107C141.935 34.8624 141.483 34.9882 140.902 34.9882Z" fill="#313131"/>
<path d="M137.818 34.9169L136.073 32.5084L137.746 30.3016H139.165L137.258 32.6972V32.2871L139.237 34.9169H137.818ZM135.019 34.9169V30.3016H136.184V34.9169H135.019Z" fill="#313131"/>
<path d="M132.071 33.2635L130.307 30.3016H131.641L132.989 32.7037H132.051L133.399 30.3016H134.707L132.93 33.2635H132.071ZM131.934 34.9169V32.7883H133.099V34.9169H131.934Z" fill="#313131"/>
<path d="M126.494 34.9169V33.9145H127.6C127.861 33.9145 128.086 33.8646 128.277 33.7647C128.473 33.6649 128.622 33.5174 128.727 33.3221C128.831 33.1225 128.883 32.8816 128.883 32.5995C128.883 32.3218 128.829 32.0874 128.72 31.8965C128.616 31.7012 128.468 31.5537 128.277 31.4538C128.086 31.354 127.861 31.3041 127.6 31.3041H126.442V30.3016H127.607C127.963 30.3016 128.29 30.3581 128.59 30.4709C128.889 30.5794 129.15 30.7356 129.371 30.9396C129.592 31.1435 129.764 31.3866 129.885 31.6687C130.011 31.9507 130.074 32.2632 130.074 32.606C130.074 32.9532 130.011 33.2678 129.885 33.5499C129.764 33.832 129.592 34.075 129.371 34.279C129.15 34.483 128.889 34.6414 128.59 34.7542C128.295 34.8627 127.971 34.9169 127.62 34.9169H126.494ZM125.706 34.9169V30.3016H126.871V34.9169H125.706Z" fill="#313131"/>
<path d="M75.6143 14.8263C75.6143 8.39262 70.3987 3.17707 63.965 3.17707C57.5313 3.17707 52.3157 8.39262 52.3157 14.8263C52.3157 21.26 57.5313 26.4756 63.965 26.4756V29.6527C55.7766 29.6527 49.1387 23.0147 49.1387 14.8263C49.1387 6.63798 55.7766 0 63.965 0C72.1534 0 78.7913 6.63798 78.7913 14.8263C78.7913 23.0147 72.1534 29.6527 63.965 29.6527V26.4756C70.3987 26.4756 75.6143 21.26 75.6143 14.8263Z" fill="#313131"/>
<path d="M69.526 14.8263C69.526 11.7557 67.0367 9.26647 63.9661 9.26647C60.8955 9.26647 58.4062 11.7557 58.4062 14.8263C58.4062 17.897 60.8955 20.3862 63.9661 20.3862V23.7221C59.0531 23.7221 55.0703 19.7394 55.0703 14.8263C55.0703 9.91333 59.0531 5.93054 63.9661 5.93054C68.8791 5.93054 72.8619 9.91333 72.8619 14.8263C72.8619 19.7394 68.8791 23.7221 63.9661 23.7221V20.3862C67.0367 20.3862 69.526 17.897 69.526 14.8263Z" fill="#313131"/>
<path d="M66.0838 14.8263C66.0838 15.9961 65.1355 16.9443 63.9657 16.9443C62.7959 16.9443 61.8477 15.9961 61.8477 14.8263C61.8477 13.6565 62.7959 12.7083 63.9657 12.7083C65.1355 12.7083 66.0838 13.6565 66.0838 14.8263Z" fill="#313131"/>
<path d="M74.5547 10.1666H80.4852V17.7916H74.5547V10.1666Z" fill="white"/>
</svg>
